<mxfile host="app.diagrams.net" modified="2021-03-19T18:42:00.209Z" agent="5.0 (Windows NT 10.0; Win64; x64) AppleWebKit/537.36 (KHTML, like Gecko) Chrome/88.0.4324.152 YaBrowser/21.2.3.100 Yowser/2.5 Safari/537.36" etag="n8FVr2FRO-GSVKw-W3hh" version="14.4.9" type="github">
  <diagram name="Page-1" id="929967ad-93f9-6ef4-fab6-5d389245f69c">
    <mxGraphModel dx="990" dy="576" grid="1" gridSize="10" guides="1" tooltips="1" connect="1" arrows="1" fold="1" page="1" pageScale="1.5" pageWidth="1169" pageHeight="826" background="none" math="0" shadow="0">
      <root>
        <mxCell id="0" style=";html=1;" />
        <mxCell id="1" style=";html=1;" parent="0" />
        <mxCell id="1672d66443f91eb5-1" value="&lt;p style=&quot;margin: 0px ; margin-top: 4px ; margin-left: 10px ; text-align: left&quot;&gt;&lt;b&gt;req&lt;/b&gt;&amp;nbsp;[package] HSUVRequirements[HSUV Specification]&lt;/p&gt;" style="html=1;strokeWidth=1;shape=mxgraph.sysml.package;html=1;overflow=fill;whiteSpace=wrap;fillColor=none;gradientColor=none;fontSize=12;align=center;labelX=327.64;" parent="1" vertex="1">
          <mxGeometry x="680" y="240" width="1120" height="650" as="geometry" />
        </mxCell>
        <mxCell id="1672d66443f91eb5-23" value="Title" style="text;strokeColor=none;fillColor=none;html=1;fontSize=24;fontStyle=1;verticalAlign=middle;align=center;" parent="1" vertex="1">
          <mxGeometry x="120" y="40" width="1510" height="40" as="geometry" />
        </mxCell>
        <mxCell id="on8Y2TkBCUf9qJ8yXon4-2" value="Authorization" style="rounded=0;whiteSpace=wrap;html=1;" vertex="1" parent="1">
          <mxGeometry x="760" y="320" width="210" height="50" as="geometry" />
        </mxCell>
        <mxCell id="on8Y2TkBCUf9qJ8yXon4-5" value="Protected:&lt;br&gt;Login : string&lt;br&gt;Password : string" style="rounded=0;whiteSpace=wrap;html=1;align=left;" vertex="1" parent="1">
          <mxGeometry x="760" y="370" width="210" height="60" as="geometry" />
        </mxCell>
        <mxCell id="on8Y2TkBCUf9qJ8yXon4-6" value="Protected:&lt;br&gt;get_login : string&lt;br&gt;get_password: string&lt;br&gt;Public:&lt;br&gt;data_validation (string, string): bool" style="rounded=0;whiteSpace=wrap;html=1;align=left;" vertex="1" parent="1">
          <mxGeometry x="760" y="430" width="210" height="110" as="geometry" />
        </mxCell>
        <mxCell id="on8Y2TkBCUf9qJ8yXon4-8" value="" style="endArrow=classic;html=1;exitX=1;exitY=0.5;exitDx=0;exitDy=0;startArrow=classic;startFill=1;" edge="1" parent="1" source="on8Y2TkBCUf9qJ8yXon4-6">
          <mxGeometry width="50" height="50" relative="1" as="geometry">
            <mxPoint x="1100" y="540" as="sourcePoint" />
            <mxPoint x="1150" y="485" as="targetPoint" />
          </mxGeometry>
        </mxCell>
        <mxCell id="on8Y2TkBCUf9qJ8yXon4-12" value="Table_student" style="rounded=0;whiteSpace=wrap;html=1;align=center;" vertex="1" parent="1">
          <mxGeometry x="1150" y="435" width="200" height="45" as="geometry" />
        </mxCell>
        <mxCell id="on8Y2TkBCUf9qJ8yXon4-14" value="Public:&lt;br&gt;&lt;div&gt;&lt;span&gt;Start_course : bool&lt;/span&gt;&lt;/div&gt;Achievements: bool&lt;br&gt;Exit: bool" style="rounded=0;whiteSpace=wrap;html=1;align=left;" vertex="1" parent="1">
          <mxGeometry x="1150" y="480" width="200" height="60" as="geometry" />
        </mxCell>
        <mxCell id="on8Y2TkBCUf9qJ8yXon4-15" value="" style="endArrow=classic;html=1;entryX=0.5;entryY=0;entryDx=0;entryDy=0;exitX=0.5;exitY=1;exitDx=0;exitDy=0;startArrow=classic;startFill=1;" edge="1" parent="1" source="on8Y2TkBCUf9qJ8yXon4-6" target="on8Y2TkBCUf9qJ8yXon4-16">
          <mxGeometry width="50" height="50" relative="1" as="geometry">
            <mxPoint x="1100" y="530" as="sourcePoint" />
            <mxPoint x="1150" y="480" as="targetPoint" />
            <Array as="points" />
          </mxGeometry>
        </mxCell>
        <mxCell id="on8Y2TkBCUf9qJ8yXon4-16" value="Table_teacher" style="rounded=0;whiteSpace=wrap;html=1;align=center;" vertex="1" parent="1">
          <mxGeometry x="760" y="610" width="210" height="60" as="geometry" />
        </mxCell>
        <mxCell id="on8Y2TkBCUf9qJ8yXon4-17" value="Public:&lt;br&gt;New_registration : bool&lt;br&gt;Shows_results : bool&lt;br&gt;Exit: bool" style="rounded=0;whiteSpace=wrap;html=1;align=left;" vertex="1" parent="1">
          <mxGeometry x="760" y="670" width="210" height="70" as="geometry" />
        </mxCell>
        <mxCell id="on8Y2TkBCUf9qJ8yXon4-31" value="" style="edgeStyle=orthogonalEdgeStyle;rounded=0;orthogonalLoop=1;jettySize=auto;html=1;startArrow=classic;startFill=1;" edge="1" parent="1" source="on8Y2TkBCUf9qJ8yXon4-18" target="on8Y2TkBCUf9qJ8yXon4-22">
          <mxGeometry relative="1" as="geometry" />
        </mxCell>
        <mxCell id="on8Y2TkBCUf9qJ8yXon4-18" value="Public:&lt;br&gt;Continue: bool&lt;br&gt;Exit: bool" style="rounded=0;whiteSpace=wrap;html=1;align=left;" vertex="1" parent="1">
          <mxGeometry x="1400" y="300" width="160" height="70" as="geometry" />
        </mxCell>
        <mxCell id="on8Y2TkBCUf9qJ8yXon4-19" value="" style="endArrow=classic;html=1;exitX=1;exitY=0.25;exitDx=0;exitDy=0;entryX=0;entryY=0.5;entryDx=0;entryDy=0;startArrow=classic;startFill=1;" edge="1" parent="1" source="on8Y2TkBCUf9qJ8yXon4-14" target="on8Y2TkBCUf9qJ8yXon4-18">
          <mxGeometry width="50" height="50" relative="1" as="geometry">
            <mxPoint x="1100" y="570" as="sourcePoint" />
            <mxPoint x="1150" y="520" as="targetPoint" />
          </mxGeometry>
        </mxCell>
        <mxCell id="on8Y2TkBCUf9qJ8yXon4-21" value="Level" style="rounded=0;whiteSpace=wrap;html=1;align=center;" vertex="1" parent="1">
          <mxGeometry x="1640" y="260" width="130" height="30" as="geometry" />
        </mxCell>
        <mxCell id="on8Y2TkBCUf9qJ8yXon4-22" value="" style="rounded=0;whiteSpace=wrap;html=1;align=center;" vertex="1" parent="1">
          <mxGeometry x="1640" y="290" width="130" height="60" as="geometry" />
        </mxCell>
        <mxCell id="on8Y2TkBCUf9qJ8yXon4-28" value="Students" style="rounded=0;whiteSpace=wrap;html=1;align=center;" vertex="1" parent="1">
          <mxGeometry x="990" y="640" width="120" height="20" as="geometry" />
        </mxCell>
        <mxCell id="on8Y2TkBCUf9qJ8yXon4-32" value="Course" style="rounded=0;whiteSpace=wrap;html=1;align=center;" vertex="1" parent="1">
          <mxGeometry x="1400" y="270" width="160" height="30" as="geometry" />
        </mxCell>
        <mxCell id="on8Y2TkBCUf9qJ8yXon4-33" value="Public:&lt;br&gt;Show(Names): bool&lt;br&gt;Exit: bool&amp;nbsp;" style="rounded=0;whiteSpace=wrap;html=1;align=left;" vertex="1" parent="1">
          <mxGeometry x="990" y="660" width="120" height="60" as="geometry" />
        </mxCell>
        <mxCell id="on8Y2TkBCUf9qJ8yXon4-34" value="" style="endArrow=classic;html=1;exitX=1;exitY=0.5;exitDx=0;exitDy=0;" edge="1" parent="1" source="on8Y2TkBCUf9qJ8yXon4-17" target="on8Y2TkBCUf9qJ8yXon4-33">
          <mxGeometry width="50" height="50" relative="1" as="geometry">
            <mxPoint x="1190" y="560" as="sourcePoint" />
            <mxPoint x="1240" y="510" as="targetPoint" />
          </mxGeometry>
        </mxCell>
        <mxCell id="on8Y2TkBCUf9qJ8yXon4-36" value="Achievements&amp;nbsp;" style="rounded=0;whiteSpace=wrap;html=1;align=center;" vertex="1" parent="1">
          <mxGeometry x="1150" y="600" width="200" height="40" as="geometry" />
        </mxCell>
        <mxCell id="on8Y2TkBCUf9qJ8yXon4-37" value="Public:&lt;br&gt;Show_results(results)&lt;br&gt;Exit: bool" style="rounded=0;whiteSpace=wrap;html=1;align=left;" vertex="1" parent="1">
          <mxGeometry x="1150" y="640" width="200" height="60" as="geometry" />
        </mxCell>
        <mxCell id="on8Y2TkBCUf9qJ8yXon4-38" value="" style="endArrow=classic;html=1;exitX=1;exitY=0.25;exitDx=0;exitDy=0;entryX=0;entryY=0.25;entryDx=0;entryDy=0;startArrow=classic;startFill=1;" edge="1" parent="1" source="on8Y2TkBCUf9qJ8yXon4-33" target="on8Y2TkBCUf9qJ8yXon4-37">
          <mxGeometry width="50" height="50" relative="1" as="geometry">
            <mxPoint x="1190" y="550" as="sourcePoint" />
            <mxPoint x="1240" y="500" as="targetPoint" />
          </mxGeometry>
        </mxCell>
        <mxCell id="on8Y2TkBCUf9qJ8yXon4-39" value="" style="endArrow=classic;html=1;exitX=0.5;exitY=1;exitDx=0;exitDy=0;entryX=0.5;entryY=0;entryDx=0;entryDy=0;startArrow=classic;startFill=1;" edge="1" parent="1" source="on8Y2TkBCUf9qJ8yXon4-14" target="on8Y2TkBCUf9qJ8yXon4-36">
          <mxGeometry width="50" height="50" relative="1" as="geometry">
            <mxPoint x="1190" y="550" as="sourcePoint" />
            <mxPoint x="1240" y="500" as="targetPoint" />
          </mxGeometry>
        </mxCell>
        <mxCell id="on8Y2TkBCUf9qJ8yXon4-41" value="Registration" style="rounded=0;whiteSpace=wrap;html=1;align=center;" vertex="1" parent="1">
          <mxGeometry x="1020" y="750" width="160" height="40" as="geometry" />
        </mxCell>
        <mxCell id="on8Y2TkBCUf9qJ8yXon4-42" value="&lt;div&gt;&lt;span&gt;Public:&lt;/span&gt;&lt;/div&gt;&lt;div&gt;&lt;span&gt;Login : string&lt;/span&gt;&lt;/div&gt;&lt;div&gt;&lt;span&gt;Password_one: string&lt;/span&gt;&lt;/div&gt;Password_two: string&lt;br&gt;Exit: bool" style="rounded=0;whiteSpace=wrap;html=1;align=left;" vertex="1" parent="1">
          <mxGeometry x="1020" y="790" width="160" height="70" as="geometry" />
        </mxCell>
        <mxCell id="on8Y2TkBCUf9qJ8yXon4-43" value="" style="endArrow=classic;html=1;exitX=0.5;exitY=1;exitDx=0;exitDy=0;entryX=0;entryY=0.5;entryDx=0;entryDy=0;startArrow=classic;startFill=1;" edge="1" parent="1" source="on8Y2TkBCUf9qJ8yXon4-17" target="on8Y2TkBCUf9qJ8yXon4-42">
          <mxGeometry width="50" height="50" relative="1" as="geometry">
            <mxPoint x="1190" y="630" as="sourcePoint" />
            <mxPoint x="1240" y="580" as="targetPoint" />
          </mxGeometry>
        </mxCell>
      </root>
    </mxGraphModel>
  </diagram>
</mxfile>
